<svg width="326" height="41" viewBox="0 0 326 41" fill="none" xmlns="http://www.w3.org/2000/svg">
<path d="M15.4505 0.822135C19.5485 0.822135 23.1298 1.65201 26.1941 3.31176C29.2952 4.9346 31.6765 7.22134 33.3378 10.1719C34.9991 13.1226 35.8298 16.4975 35.8298 20.2965C35.8298 24.0585 34.9809 27.4149 33.2826 30.3656C31.6213 33.3162 29.2398 35.64 26.1386 37.3367C23.0743 38.9964 19.5115 39.8263 15.4505 39.8263H1.10757C0.495876 39.8263 0 39.3309 0 38.7198V1.92863C0 1.31753 0.495876 0.822135 1.10757 0.822135H15.4505ZM11.3205 12.256C9.8745 12.2561 9.07508 13.9534 9.9858 15.0899L13.3395 19.275C13.851 19.9133 13.851 20.8269 13.3395 21.4653L9.9858 25.6507C9.07507 26.7873 9.87444 28.4846 11.3205 28.4847H16.4319C16.9499 28.4847 17.4403 28.2481 17.7666 27.841L22.8754 21.4653C23.3869 20.8269 23.3869 19.9133 22.8754 19.275L17.7666 12.8996C17.4403 12.4925 16.9499 12.256 16.4319 12.256H11.3205Z" fill="white"/>
<path d="M53.3295 9.50817C52.7178 9.50817 52.2219 10.0036 52.2219 10.6147V14.764C52.2219 15.3751 52.7178 15.8705 53.3295 15.8705H63.5745C64.1862 15.8705 64.6821 16.3659 64.6821 16.977V23.0075C64.6821 23.6186 64.1862 24.114 63.5745 24.114H53.3295C52.7178 24.114 52.2219 24.6094 52.2219 25.2205V30.0338C52.2219 30.6449 52.7178 31.1403 53.3295 31.1403H65.2358C65.8475 31.1403 66.3434 31.6357 66.3434 32.2468V38.7198C66.3434 39.3309 65.8475 39.8263 65.2358 39.8263H42.4753C41.8636 39.8263 41.3677 39.3309 41.3677 38.7198V1.92864C41.3677 1.31753 41.8636 0.822135 42.4753 0.822135H65.2358C65.8475 0.822135 66.3434 1.31753 66.3434 1.92864V8.40166C66.3434 9.01277 65.8475 9.50817 65.2358 9.50817H53.3295Z" fill="white"/>
<path d="M87.7749 40.3242C83.2338 40.3242 79.505 39.2546 76.5884 37.1154C73.9599 35.1542 72.4259 32.4442 71.9863 28.9852C71.9063 28.3552 72.4158 27.8208 73.0515 27.8208H82.434C83.0109 27.8208 83.4773 28.2674 83.6059 28.8294C83.8025 29.6881 84.1584 30.3477 84.6737 30.8083C85.3751 31.4353 86.2797 31.7488 87.3872 31.7488C88.384 31.7488 89.1963 31.5091 89.8239 31.0296C90.4884 30.5132 90.8207 29.8125 90.8207 28.9273C90.8207 27.7839 90.2854 26.8987 89.2147 26.2717C88.1441 25.6446 86.4089 24.9439 84.0091 24.1693C81.4617 23.321 79.3943 22.5096 77.8067 21.735C76.2561 20.9236 74.8901 19.7617 73.7087 18.2495C72.5642 16.7004 71.992 14.6903 71.992 12.2191C71.992 9.71103 72.6196 7.5718 73.8749 5.8014C75.1301 3.99411 76.8653 2.62943 79.0805 1.70734C81.2956 0.78526 83.8061 0.324219 86.6119 0.324219C91.153 0.324219 94.771 1.39384 97.4661 3.53307C99.9169 5.419 101.343 8.00242 101.744 11.2833C101.82 11.9106 101.312 12.4404 100.679 12.4404H91.1189C90.5207 12.4404 90.0519 11.9583 89.9032 11.3794C89.7322 10.7139 89.4104 10.1824 88.9378 9.7848C88.2733 9.19466 87.4057 8.8996 86.335 8.8996C85.5228 8.8996 84.8583 9.13934 84.3414 9.61882C83.8245 10.0983 83.5661 10.7806 83.5661 11.6658C83.5661 12.4035 83.843 13.049 84.3968 13.6022C84.9875 14.1186 85.7074 14.5796 86.5566 14.9854C87.4057 15.3542 88.6609 15.8337 90.3223 16.4238C92.7959 17.2721 94.8264 18.1204 96.4139 18.9688C98.0384 19.7802 99.4228 20.942 100.567 22.4542C101.749 23.9296 102.339 25.8106 102.339 28.0974C102.339 30.421 101.749 32.5049 100.567 34.3491C99.4228 36.1933 97.743 37.6502 95.5279 38.7198C93.3497 39.7894 90.7653 40.3242 87.7749 40.3242Z" fill="white"/>
<path d="M141.714 0.822135C142.325 0.822135 142.821 1.31753 142.821 1.92864V38.7198C142.821 39.3309 142.325 39.8263 141.714 39.8263H133.075C132.463 39.8263 131.967 39.3309 131.967 38.7198V25.2758C131.967 24.6647 131.471 24.1693 130.86 24.1693H119.839C119.228 24.1693 118.732 24.6647 118.732 25.2758V38.7198C118.732 39.3309 118.236 39.8263 117.624 39.8263H108.985C108.373 39.8263 107.877 39.3309 107.877 38.7198V1.92864C107.877 1.31753 108.373 0.822135 108.985 0.822135H117.624C118.236 0.822135 118.732 1.31753 118.732 1.92864V14.3768C118.732 14.9879 119.228 15.4833 119.839 15.4833H130.86C131.471 15.4833 131.967 14.9879 131.967 14.3768V1.92864C131.967 1.31753 132.463 0.822135 133.075 0.822135H141.714Z" fill="white"/>
<path d="M192.828 0.822135C193.44 0.822135 193.936 1.31753 193.936 1.92864V38.7198C193.936 39.3309 193.44 39.8263 192.828 39.8263H184.189C183.577 39.8263 183.081 39.3309 183.081 38.7198V24.9614C183.081 23.7111 181.331 23.4203 180.926 24.6034L175.972 39.0778C175.819 39.5255 175.398 39.8263 174.924 39.8263H167.426C166.952 39.8263 166.531 39.5254 166.378 39.0777L161.369 24.4387C160.964 23.2556 159.213 23.5463 159.213 24.7966V38.7198C159.213 39.3309 158.717 39.8263 158.106 39.8263H149.467C148.855 39.8263 148.359 39.3309 148.359 38.7198V1.92864C148.359 1.31753 148.855 0.822135 149.467 0.822135H160.724C161.182 0.822135 161.592 1.10331 161.757 1.52976L170.241 23.4598C170.607 24.4072 171.951 24.402 172.31 23.4519L180.596 1.53764C180.758 1.10706 181.171 0.822135 181.632 0.822135H192.828Z" fill="#F77B1D"/>
<path d="M209.22 0.822135C209.832 0.822135 210.328 1.31753 210.328 1.92864V38.7198C210.328 39.3309 209.832 39.8263 209.22 39.8263H200.581C199.969 39.8263 199.473 39.3309 199.473 38.7198V1.92864C199.473 1.31753 199.969 0.822135 200.581 0.822135H209.22Z" fill="#F77B1D"/>
<path d="M246.323 0.822135C246.935 0.822135 247.431 1.31753 247.431 1.92864V8.34634C247.431 8.95744 246.935 9.45284 246.323 9.45284H238.127C237.516 9.45284 237.02 9.94824 237.02 10.5593V38.7198C237.02 39.3309 236.524 39.8263 235.912 39.8263H227.273C226.662 39.8263 226.166 39.3309 226.166 38.7198V10.5593C226.166 9.94824 225.67 9.45284 225.058 9.45284H216.973C216.361 9.45284 215.865 8.95744 215.865 8.34634V1.92863C215.865 1.31753 216.361 0.822135 216.973 0.822135H246.323Z" fill="#F77B1D"/>
<path d="M273.401 39.8263C272.993 39.8263 272.619 39.6028 272.425 39.2444L265.192 25.8243C265.065 25.5887 264.819 25.4418 264.551 25.4418C264.149 25.4418 263.823 25.7674 263.823 26.1691V38.7198C263.823 39.3309 263.327 39.8263 262.715 39.8263H254.076C253.465 39.8263 252.969 39.3309 252.969 38.7198V1.92864C252.969 1.31753 253.465 0.822135 254.076 0.822135H270.081C273.219 0.822135 275.877 1.37539 278.055 2.48189C280.234 3.55151 281.876 5.04528 282.984 6.96321C284.092 8.84426 284.645 10.9651 284.645 13.3256C284.645 15.9812 283.907 18.3233 282.43 20.3519C281.225 22.0186 279.542 23.285 277.381 24.151C276.718 24.4165 276.404 25.203 276.761 25.8204L283.906 38.1659C284.333 38.9036 283.8 39.8263 282.947 39.8263H273.401ZM263.823 16.9217C263.823 17.5328 264.319 18.0282 264.931 18.0282H269.195C270.672 18.0282 271.779 17.6778 272.517 16.977C273.256 16.2763 273.625 15.262 273.625 13.9342C273.625 12.6801 273.237 11.7027 272.462 11.0019C271.724 10.2643 270.635 9.89544 269.195 9.89544H264.931C264.319 9.89544 263.823 10.3908 263.823 11.0019V16.9217Z" fill="#F77B1D"/>
<path d="M314.373 3.5526L313.718 1.58034C313.568 1.1277 313.144 0.822158 312.667 0.822158H304.164C303.687 0.822158 303.263 1.12756 303.113 1.58007L290.888 38.3712C290.65 39.0875 291.184 39.8263 291.939 39.8263H298.72C299.205 39.8263 299.634 39.5103 299.778 39.0468L305.784 19.6526C304.517 17.6525 303.644 14.089 305.656 7.99323L306.444 5.60043L308.281 7.17116C308.449 7.31062 311.799 10.2759 311.209 16.9919C311.751 16.6139 312.318 16.2579 312.907 15.9203C311.701 13.9936 310.565 10.0521 314.373 3.5526ZM322.494 27.9907L321.106 23.8144C320.472 23.9318 319.778 23.9979 319.023 23.9979C317.443 23.9979 315.741 23.7006 313.969 23.1134L313.392 22.9226C313.025 23.2785 312.661 23.6565 312.307 24.0602L312.328 24.1263C312.732 24.0712 313.163 24.0419 313.622 24.0419C315.374 24.0419 317.372 24.4786 319.562 25.3337L321.759 26.1961L320.317 28.1963C320.236 28.31 318.454 30.7138 314.555 31.3157L315.02 32.8131L316.949 39.0466C317.092 39.5102 317.521 39.8263 318.007 39.8263H324.892C325.647 39.8263 326.181 39.0875 325.943 38.3712L322.494 27.9907Z" fill="#F77B1D"/>
<path d="M318.993 27.0621C318.993 27.0621 315.94 31.2935 308.308 28.875C308.308 28.875 310.111 23.583 318.993 27.0621Z" fill="#059246"/>
<path d="M307.239 8.61334C307.239 8.61334 311.125 11.9383 308.907 20.2507C308.907 20.2507 304.048 18.2873 307.239 8.61334Z" fill="#059246"/>
<path d="M316.048 4.11042C316.048 4.11042 319.087 8.34921 315.108 15.8432C315.108 15.8432 310.825 12.6687 316.048 4.11042Z" fill="#059246"/>
<path d="M325.159 19.6855C325.159 19.6855 322.063 23.8766 314.457 21.359C314.457 21.359 316.317 16.0926 325.159 19.6855Z" fill="#059246"/>
<path d="M308.884 39.8263C308.884 39.8263 305.612 37.9399 304.84 32.068C304.072 26.1961 308.308 19.9058 315.623 16.5478C318.72 15.1275 320.54 13.3696 321.611 11.8136C320.873 10.7016 319.636 7.56747 323.737 2.09925C323.737 2.09925 326.234 8.31613 322.447 11.8796C321.692 13.8284 320.139 16.1551 316.971 18.0158C311.128 21.4509 303.685 28.9229 308.884 39.8263Z" fill="#059246"/>
<path d="M308.655 28.2145C308.402 28.5998 308.308 28.875 308.308 28.875C315.94 31.2935 318.993 27.0621 318.993 27.0621C318.771 26.974 318.552 26.8933 318.336 26.8163C317.207 27.8475 314.191 29.8109 308.655 28.2145Z" fill="#059246"/>
<path d="M308.907 20.2507C309.74 17.1276 309.713 14.7092 309.352 12.9036C309.571 14.6027 309.491 16.7643 308.776 19.4471C308.776 19.4471 306.855 18.669 306.222 15.6854C306.647 19.337 308.907 20.2507 308.907 20.2507Z" fill="#059246"/>
<path d="M315.108 15.8432C317.355 11.6081 317.366 8.41503 316.944 6.43693C317.194 8.43338 316.941 11.34 314.977 15.0393C314.977 15.0393 313.915 14.2539 313.494 12.4043C313.743 14.8301 315.108 15.8432 315.108 15.8432Z" fill="#059246"/>
<path d="M324.502 19.4322C323.367 20.4451 320.331 22.3718 314.808 20.7057C314.555 21.0874 314.457 21.359 314.457 21.359C322.063 23.8766 325.159 19.6855 325.159 19.6855C324.937 19.5938 324.718 19.5093 324.502 19.4322Z" fill="#059246"/>
<path d="M321.48 11.0099C321.274 10.6979 321.028 10.2282 320.87 9.59329C320.93 10.2869 321.106 10.8374 321.301 11.2594C321.365 11.175 321.422 11.0943 321.48 11.0099Z" fill="#059246"/>
<path d="M315.664 18.8377C315.954 18.6432 316.237 18.4597 316.52 18.2872C316.671 18.1954 316.823 18.1039 316.971 18.0158C320.139 16.1551 321.692 13.8284 322.447 11.8796C324.829 9.63731 324.725 6.34154 324.317 4.2093C324.583 6.30484 324.418 9.09766 322.315 11.0758C321.561 13.0245 320.007 15.3512 316.84 17.2119C311.829 20.1589 305.639 26.0748 307.263 34.5781C306.259 27.2162 311.122 21.8837 315.664 18.8377Z" fill="#059246"/>
<path d="M322.494 27.9907C320.071 32.0203 316.759 32.7397 315.02 32.8131L314.555 31.3157C318.454 30.7138 320.236 28.31 320.317 28.1963L321.759 26.1961L319.562 25.3337C317.372 24.4786 315.374 24.0419 313.622 24.0419C313.163 24.0419 312.732 24.0712 312.328 24.1263L312.307 24.0602C312.661 23.6565 313.025 23.2785 313.392 22.9226L313.969 23.1134C315.741 23.7006 317.443 23.9979 319.023 23.9979C319.778 23.9979 320.472 23.9318 321.106 23.8144L322.494 27.9907Z" fill="#CA6618"/>
</svg>
