<svg width="17" height="17" viewBox="0 0 17 17" fill="none" xmlns="http://www.w3.org/2000/svg">
<g clip-path="url(#clip0_1022_1906)">
<g clip-path="url(#clip1_1022_1906)">
<path d="M1.6875 2.82422C0.859375 2.82422 0.1875 3.49609 0.1875 4.32422C0.1875 4.79609 0.409375 5.23984 0.7875 5.52422L7.5875 10.6242C7.94375 10.8898 8.43125 10.8898 8.7875 10.6242L15.5875 5.52422C15.9656 5.23984 16.1875 4.79609 16.1875 4.32422C16.1875 3.49609 15.5156 2.82422 14.6875 2.82422H1.6875ZM0.1875 6.32422V12.8242C0.1875 13.9273 1.08438 14.8242 2.1875 14.8242H14.1875C15.2906 14.8242 16.1875 13.9273 16.1875 12.8242V6.32422L9.3875 11.4242C8.675 11.9586 7.7 11.9586 6.9875 11.4242L0.1875 6.32422Z" fill="#FF923F"/>
</g>
</g>
<defs>
<clipPath id="clip0_1022_1906">
<rect width="16" height="16" fill="white" transform="translate(0.1875 0.824219)"/>
</clipPath>
<clipPath id="clip1_1022_1906">
<path d="M0.1875 0.824219H16.1875V16.8242H0.1875V0.824219Z" fill="white"/>
</clipPath>
</defs>
</svg>
