<svg width="21" height="17" viewBox="0 0 21 17" fill="none" xmlns="http://www.w3.org/2000/svg">
<g clip-path="url(#clip0_1022_1901)">
<g clip-path="url(#clip1_1022_1901)">
<path d="M6.6876 11.8242C10.2782 11.8242 13.1876 9.36172 13.1876 6.32422C13.1876 3.28672 10.2782 0.824219 6.6876 0.824219C3.09697 0.824219 0.187598 3.28672 0.187598 6.32422C0.187598 7.53047 0.646973 8.64609 1.4251 9.55547C1.31572 9.84922 1.15322 10.1086 0.981348 10.3273C0.831348 10.5211 0.678223 10.6711 0.565723 10.7742C0.509473 10.8242 0.462598 10.8648 0.431348 10.8898C0.415723 10.9023 0.403223 10.9117 0.396973 10.9148L0.390723 10.9211C0.218848 11.0492 0.143848 11.2742 0.212598 11.4773C0.281348 11.6805 0.471973 11.8242 0.687598 11.8242C1.36885 11.8242 2.05635 11.6492 2.62822 11.4336C2.91572 11.3242 3.18447 11.2023 3.41885 11.0773C4.37822 11.5523 5.49385 11.8242 6.6876 11.8242ZM14.1876 6.32422C14.1876 9.83359 11.0907 12.4773 7.42197 12.793C8.18135 15.118 10.7001 16.8242 13.6876 16.8242C14.8813 16.8242 15.997 16.5523 16.9595 16.0773C17.1938 16.2023 17.4595 16.3242 17.747 16.4336C18.3188 16.6492 19.0063 16.8242 19.6876 16.8242C19.9032 16.8242 20.097 16.6836 20.1626 16.4773C20.2282 16.2711 20.1563 16.0461 19.9813 15.918L19.9751 15.9117C19.9688 15.9055 19.9563 15.8992 19.9407 15.8867C19.9095 15.8617 19.8626 15.8242 19.8063 15.7711C19.6938 15.668 19.5407 15.518 19.3907 15.3242C19.2188 15.1055 19.0563 14.843 18.947 14.5523C19.7251 13.6461 20.1845 12.5305 20.1845 11.3211C20.1845 8.42109 17.5313 6.04297 14.1657 5.83672C14.1782 5.99609 14.1845 6.15859 14.1845 6.32109L14.1876 6.32422Z" fill="#FF923F"/>
</g>
</g>
<defs>
<clipPath id="clip0_1022_1901">
<rect width="20" height="16" fill="white" transform="translate(0.1875 0.824219)"/>
</clipPath>
<clipPath id="clip1_1022_1901">
<path d="M0.1875 0.824219H20.1875V16.8242H0.1875V0.824219Z" fill="white"/>
</clipPath>
</defs>
</svg>
