<svg width="17" height="17" viewBox="0 0 17 17" fill="none" xmlns="http://www.w3.org/2000/svg">
<g clip-path="url(#clip0_1022_1896)">
<g clip-path="url(#clip1_1022_1896)">
<path d="M8.1875 16.8242C10.3092 16.8242 12.3441 15.9814 13.8444 14.4811C15.3446 12.9808 16.1875 10.946 16.1875 8.82422C16.1875 6.70249 15.3446 4.66766 13.8444 3.16736C12.3441 1.66707 10.3092 0.824219 8.1875 0.824219C6.06577 0.824219 4.03094 1.66707 2.53065 3.16736C1.03035 4.66766 0.1875 6.70249 0.1875 8.82422C0.1875 10.946 1.03035 12.9808 2.53065 14.4811C4.03094 15.9814 6.06577 16.8242 8.1875 16.8242ZM5.49375 5.98984C5.74062 5.29297 6.40313 4.82422 7.14375 4.82422H8.96562C10.0562 4.82422 10.9375 5.70859 10.9375 6.79609C10.9375 7.50234 10.5594 8.15547 9.94687 8.50859L8.9375 9.08672C8.93125 9.49297 8.59688 9.82422 8.1875 9.82422C7.77187 9.82422 7.4375 9.48984 7.4375 9.07422V8.65234C7.4375 8.38359 7.58125 8.13672 7.81563 8.00234L9.2 7.20859C9.34688 7.12422 9.4375 6.96797 9.4375 6.79922C9.4375 6.53672 9.225 6.32734 8.96562 6.32734H7.14375C7.0375 6.32734 6.94375 6.39297 6.90938 6.49297L6.89687 6.53047C6.75938 6.92109 6.32812 7.12422 5.94063 6.98672C5.55313 6.84922 5.34688 6.41797 5.48438 6.03047L5.49687 5.99297L5.49375 5.98984ZM7.1875 11.8242C7.1875 11.559 7.29286 11.3046 7.48039 11.1171C7.66793 10.9296 7.92228 10.8242 8.1875 10.8242C8.45272 10.8242 8.70707 10.9296 8.89461 11.1171C9.08214 11.3046 9.1875 11.559 9.1875 11.8242C9.1875 12.0894 9.08214 12.3438 8.89461 12.5313C8.70707 12.7189 8.45272 12.8242 8.1875 12.8242C7.92228 12.8242 7.66793 12.7189 7.48039 12.5313C7.29286 12.3438 7.1875 12.0894 7.1875 11.8242Z" fill="#FF923F"/>
</g>
</g>
<defs>
<clipPath id="clip0_1022_1896">
<rect width="16" height="16" fill="white" transform="translate(0.1875 0.824219)"/>
</clipPath>
<clipPath id="clip1_1022_1896">
<path d="M0.1875 0.824219H16.1875V16.8242H0.1875V0.824219Z" fill="white"/>
</clipPath>
</defs>
</svg>
