<svg width="17" height="17" viewBox="0 0 17 17" fill="none" xmlns="http://www.w3.org/2000/svg">
<g clip-path="url(#clip0_1022_1840)">
<g clip-path="url(#clip1_1022_1840)">
<path d="M2.59375 2.32422C2.59375 1.77109 2.14688 1.32422 1.59375 1.32422C1.04062 1.32422 0.59375 1.77109 0.59375 2.32422V12.8242C0.59375 14.2055 1.7125 15.3242 3.09375 15.3242H15.5938C16.1469 15.3242 16.5938 14.8773 16.5938 14.3242C16.5938 13.7711 16.1469 13.3242 15.5938 13.3242H3.09375C2.81875 13.3242 2.59375 13.0992 2.59375 12.8242V2.32422ZM15.3 5.03047C15.6906 4.63984 15.6906 4.00547 15.3 3.61484C14.9094 3.22422 14.275 3.22422 13.8844 3.61484L10.5938 6.90859L8.8 5.11484C8.40938 4.72422 7.775 4.72422 7.38438 5.11484L3.88438 8.61484C3.49375 9.00547 3.49375 9.63984 3.88438 10.0305C4.275 10.4211 4.90938 10.4211 5.3 10.0305L8.09375 7.23984L9.8875 9.03359C10.2781 9.42422 10.9125 9.42422 11.3031 9.03359L15.3031 5.03359L15.3 5.03047Z" fill="#FF923F"/>
</g>
</g>
<defs>
<clipPath id="clip0_1022_1840">
<rect width="16" height="16" fill="white" transform="translate(0.59375 0.324219)"/>
</clipPath>
<clipPath id="clip1_1022_1840">
<path d="M0.59375 0.324219H16.5938V16.3242H0.59375V0.324219Z" fill="white"/>
</clipPath>
</defs>
</svg>
