<svg width="19" height="17" viewBox="0 0 19 17" fill="none" xmlns="http://www.w3.org/2000/svg">
<g clip-path="url(#clip0_1022_1835)">
<g clip-path="url(#clip1_1022_1835)">
<path d="M17.7062 3.56797L15.9156 0.733594C15.7562 0.480469 15.4718 0.324219 15.1687 0.324219H4.01868C3.71556 0.324219 3.43118 0.480469 3.27181 0.733594L1.47806 3.56797C0.553056 5.03047 1.37181 7.06484 3.09993 7.29922C3.22493 7.31484 3.35306 7.32422 3.47806 7.32422C4.29368 7.32422 5.01868 6.96797 5.51556 6.41797C6.01243 6.96797 6.73743 7.32422 7.55306 7.32422C8.36868 7.32422 9.09368 6.96797 9.59056 6.41797C10.0874 6.96797 10.8124 7.32422 11.6281 7.32422C12.4468 7.32422 13.1687 6.96797 13.6656 6.41797C14.1656 6.96797 14.8874 7.32422 15.7031 7.32422C15.8312 7.32422 15.9562 7.31484 16.0812 7.29922C17.8156 7.06797 18.6374 5.03359 17.7093 3.56797H17.7062ZM16.2093 8.28984H16.2062C16.0406 8.31172 15.8718 8.32422 15.6999 8.32422C15.3124 8.32422 14.9406 8.26484 14.5937 8.15859V12.3242H4.59368V8.15547C4.24368 8.26484 3.86868 8.32422 3.48118 8.32422C3.30931 8.32422 3.13743 8.31172 2.97181 8.28984H2.96868C2.84056 8.27109 2.71556 8.24922 2.59368 8.21797V12.3242V14.3242C2.59368 15.4273 3.49056 16.3242 4.59368 16.3242H14.5937C15.6968 16.3242 16.5937 15.4273 16.5937 14.3242V12.3242V8.21797C16.4687 8.24922 16.3437 8.27422 16.2093 8.28984Z" fill="#FF923F"/>
</g>
</g>
<defs>
<clipPath id="clip0_1022_1835">
<rect width="18" height="16" fill="white" transform="translate(0.59375 0.324219)"/>
</clipPath>
<clipPath id="clip1_1022_1835">
<path d="M0.59375 0.324219H18.5938V16.3242H0.59375V0.324219Z" fill="white"/>
</clipPath>
</defs>
</svg>
