<svg width="19" height="17" viewBox="0 0 19 17" fill="none" xmlns="http://www.w3.org/2000/svg">
<g clip-path="url(#clip0_1022_1845)">
<g clip-path="url(#clip1_1022_1845)">
<path d="M8.34375 0.324219H7.09375C6.26562 0.324219 5.59375 0.996094 5.59375 1.82422V5.32422C5.59375 6.42734 6.49062 7.32422 7.59375 7.32422H11.5938C12.6969 7.32422 13.5938 6.42734 13.5938 5.32422V1.82422C13.5938 0.996094 12.9219 0.324219 12.0938 0.324219H10.8438V2.82422C10.8438 3.09922 10.6187 3.32422 10.3438 3.32422H8.84375C8.56875 3.32422 8.34375 3.09922 8.34375 2.82422V0.324219ZM2.59375 8.32422C1.49063 8.32422 0.59375 9.22109 0.59375 10.3242V14.3242C0.59375 15.4273 1.49063 16.3242 2.59375 16.3242H7.59375C8.69687 16.3242 9.59375 15.4273 9.59375 14.3242V10.3242C9.59375 9.22109 8.69687 8.32422 7.59375 8.32422H6.34375V10.8242C6.34375 11.0992 6.11875 11.3242 5.84375 11.3242H4.34375C4.06875 11.3242 3.84375 11.0992 3.84375 10.8242V8.32422H2.59375ZM11.5938 16.3242H16.5938C17.6969 16.3242 18.5938 15.4273 18.5938 14.3242V10.3242C18.5938 9.22109 17.6969 8.32422 16.5938 8.32422H15.3438V10.8242C15.3438 11.0992 15.1187 11.3242 14.8438 11.3242H13.3438C13.0688 11.3242 12.8438 11.0992 12.8438 10.8242V8.32422H11.5938C11.125 8.32422 10.6937 8.48359 10.3531 8.75547C10.5062 9.08047 10.5938 9.44297 10.5938 9.82422V14.8242C10.5938 15.2055 10.5062 15.568 10.3531 15.893C10.6937 16.1648 11.125 16.3242 11.5938 16.3242Z" fill="#FF923F"/>
</g>
</g>
<defs>
<clipPath id="clip0_1022_1845">
<rect width="18" height="16" fill="white" transform="translate(0.59375 0.324219)"/>
</clipPath>
<clipPath id="clip1_1022_1845">
<path d="M0.59375 0.324219H18.5938V16.3242H0.59375V0.324219Z" fill="white"/>
</clipPath>
</defs>
</svg>
