<svg width="19" height="17" viewBox="0 0 19 17" fill="none" xmlns="http://www.w3.org/2000/svg">
<g clip-path="url(#clip0_1022_1855)">
<g clip-path="url(#clip1_1022_1855)">
<path d="M2.59375 1.32422C1.49063 1.32422 0.59375 2.22109 0.59375 3.32422V4.32422H18.5938V3.32422C18.5938 2.22109 17.6969 1.32422 16.5938 1.32422H2.59375ZM18.5938 7.32422H0.59375V13.3242C0.59375 14.4273 1.49063 15.3242 2.59375 15.3242H16.5938C17.6969 15.3242 18.5938 14.4273 18.5938 13.3242V7.32422ZM4.09375 11.3242H6.09375C6.36875 11.3242 6.59375 11.5492 6.59375 11.8242C6.59375 12.0992 6.36875 12.3242 6.09375 12.3242H4.09375C3.81875 12.3242 3.59375 12.0992 3.59375 11.8242C3.59375 11.5492 3.81875 11.3242 4.09375 11.3242ZM7.59375 11.8242C7.59375 11.5492 7.81875 11.3242 8.09375 11.3242H12.0938C12.3687 11.3242 12.5938 11.5492 12.5938 11.8242C12.5938 12.0992 12.3687 12.3242 12.0938 12.3242H8.09375C7.81875 12.3242 7.59375 12.0992 7.59375 11.8242Z" fill="#FF923F"/>
</g>
</g>
<defs>
<clipPath id="clip0_1022_1855">
<rect width="18" height="16" fill="white" transform="translate(0.59375 0.324219)"/>
</clipPath>
<clipPath id="clip1_1022_1855">
<path d="M0.59375 0.324219H18.5938V16.3242H0.59375V0.324219Z" fill="white"/>
</clipPath>
</defs>
</svg>
