<svg width="17" height="17" viewBox="0 0 17 17" fill="none" xmlns="http://www.w3.org/2000/svg">
<g clip-path="url(#clip0_1022_1911)">
<g clip-path="url(#clip1_1022_1911)">
<path d="M5.34062 1.59367C5.1 1.01242 4.46562 0.703048 3.85938 0.868673L1.10938 1.61867C0.565625 1.76867 0.1875 2.26242 0.1875 2.82492C0.1875 10.5562 6.45625 16.8249 14.1875 16.8249C14.75 16.8249 15.2438 16.4468 15.3938 15.903L16.1438 13.153C16.3094 12.5468 16 11.9124 15.4187 11.6718L12.4187 10.4218C11.9094 10.2093 11.3188 10.3562 10.9719 10.7843L9.70938 12.3249C7.50938 11.2843 5.72813 9.50305 4.6875 7.30305L6.22813 6.04367C6.65625 5.69367 6.80312 5.10617 6.59062 4.5968L5.34062 1.5968V1.59367Z" fill="#FF923F"/>
</g>
</g>
<defs>
<clipPath id="clip0_1022_1911">
<rect width="16" height="16" fill="white" transform="translate(0.1875 0.824219)"/>
</clipPath>
<clipPath id="clip1_1022_1911">
<path d="M0.1875 0.824219H16.1875V16.8242H0.1875V0.824219Z" fill="white"/>
</clipPath>
</defs>
</svg>
