<svg width="21" height="17" viewBox="0 0 21 17" fill="none" xmlns="http://www.w3.org/2000/svg">
<g clip-path="url(#clip0_1022_1850)">
<g clip-path="url(#clip1_1022_1850)">
<path d="M4.09375 0.324219C3.26562 0.324219 2.59375 0.996094 2.59375 1.82422V3.32422H1.09375C0.81875 3.32422 0.59375 3.54922 0.59375 3.82422C0.59375 4.09922 0.81875 4.32422 1.09375 4.32422H2.59375H9.09375C9.36875 4.32422 9.59375 4.54922 9.59375 4.82422C9.59375 5.09922 9.36875 5.32422 9.09375 5.32422H2.59375H2.09375C1.81875 5.32422 1.59375 5.54922 1.59375 5.82422C1.59375 6.09922 1.81875 6.32422 2.09375 6.32422H2.59375H8.09375C8.36875 6.32422 8.59375 6.54922 8.59375 6.82422C8.59375 7.09922 8.36875 7.32422 8.09375 7.32422H2.59375H1.09375C0.81875 7.32422 0.59375 7.54922 0.59375 7.82422C0.59375 8.09922 0.81875 8.32422 1.09375 8.32422H2.59375H7.09375C7.36875 8.32422 7.59375 8.54922 7.59375 8.82422C7.59375 9.09922 7.36875 9.32422 7.09375 9.32422H2.59375V13.3242C2.59375 14.9805 3.9375 16.3242 5.59375 16.3242C7.25 16.3242 8.59375 14.9805 8.59375 13.3242H12.5938C12.5938 14.9805 13.9375 16.3242 15.5938 16.3242C17.25 16.3242 18.5938 14.9805 18.5938 13.3242H19.5938C20.1469 13.3242 20.5938 12.8773 20.5938 12.3242C20.5938 11.7711 20.1469 11.3242 19.5938 11.3242V9.32422V8.32422V7.73984C19.5938 7.20859 19.3844 6.69922 19.0094 6.32422L16.5938 3.90859C16.2188 3.53359 15.7094 3.32422 15.1781 3.32422H13.5938V1.82422C13.5938 0.996094 12.9219 0.324219 12.0938 0.324219H4.09375ZM17.5938 7.73984V8.32422H13.5938V5.32422H15.1781L17.5938 7.73984ZM5.59375 11.8242C5.99157 11.8242 6.37311 11.9823 6.65441 12.2636C6.93571 12.5449 7.09375 12.9264 7.09375 13.3242C7.09375 13.722 6.93571 14.1036 6.65441 14.3849C6.37311 14.6662 5.99157 14.8242 5.59375 14.8242C5.19593 14.8242 4.81439 14.6662 4.53309 14.3849C4.25179 14.1036 4.09375 13.722 4.09375 13.3242C4.09375 12.9264 4.25179 12.5449 4.53309 12.2636C4.81439 11.9823 5.19593 11.8242 5.59375 11.8242ZM14.0938 13.3242C14.0938 12.9264 14.2518 12.5449 14.5331 12.2636C14.8144 11.9823 15.1959 11.8242 15.5938 11.8242C15.9916 11.8242 16.3731 11.9823 16.6544 12.2636C16.9357 12.5449 17.0938 12.9264 17.0938 13.3242C17.0938 13.722 16.9357 14.1036 16.6544 14.3849C16.3731 14.6662 15.9916 14.8242 15.5938 14.8242C15.1959 14.8242 14.8144 14.6662 14.5331 14.3849C14.2518 14.1036 14.0938 13.722 14.0938 13.3242Z" fill="#FF923F"/>
</g>
</g>
<defs>
<clipPath id="clip0_1022_1850">
<rect width="20" height="16" fill="white" transform="translate(0.59375 0.324219)"/>
</clipPath>
<clipPath id="clip1_1022_1850">
<path d="M0.59375 0.324219H20.5938V16.3242H0.59375V0.324219Z" fill="white"/>
</clipPath>
</defs>
</svg>
