<svg width="17" height="17" viewBox="0 0 17 17" fill="none" xmlns="http://www.w3.org/2000/svg">
<g clip-path="url(#clip0_1022_1891)">
<g clip-path="url(#clip1_1022_1891)">
<path d="M8.1875 2.32422C4.59688 2.32422 1.6875 5.23359 1.6875 8.82422V10.0742C1.6875 10.4898 1.35312 10.8242 0.9375 10.8242C0.521875 10.8242 0.1875 10.4898 0.1875 10.0742V8.82422C0.1875 4.40547 3.76875 0.824219 8.1875 0.824219C12.6062 0.824219 16.1875 4.40547 16.1875 8.82422V13.3273C16.1875 14.8461 14.9563 16.0773 13.4344 16.0773L9.9875 16.0742C9.72813 16.5211 9.24375 16.8242 8.6875 16.8242H7.6875C6.85938 16.8242 6.1875 16.1523 6.1875 15.3242C6.1875 14.4961 6.85938 13.8242 7.6875 13.8242H8.6875C9.24375 13.8242 9.72813 14.1273 9.9875 14.5742L13.4375 14.5773C14.1281 14.5773 14.6875 14.018 14.6875 13.3273V8.82422C14.6875 5.23359 11.7781 2.32422 8.1875 2.32422ZM4.6875 7.32422H5.1875C5.74062 7.32422 6.1875 7.77109 6.1875 8.32422V11.8242C6.1875 12.3773 5.74062 12.8242 5.1875 12.8242H4.6875C3.58437 12.8242 2.6875 11.9273 2.6875 10.8242V9.32422C2.6875 8.22109 3.58437 7.32422 4.6875 7.32422ZM11.6875 7.32422C12.7906 7.32422 13.6875 8.22109 13.6875 9.32422V10.8242C13.6875 11.9273 12.7906 12.8242 11.6875 12.8242H11.1875C10.6344 12.8242 10.1875 12.3773 10.1875 11.8242V8.32422C10.1875 7.77109 10.6344 7.32422 11.1875 7.32422H11.6875Z" fill="#FF923F"/>
</g>
</g>
<defs>
<clipPath id="clip0_1022_1891">
<rect width="16" height="16" fill="white" transform="translate(0.1875 0.824219)"/>
</clipPath>
<clipPath id="clip1_1022_1891">
<path d="M0.1875 0.824219H16.1875V16.8242H0.1875V0.824219Z" fill="white"/>
</clipPath>
</defs>
</svg>
