<svg width="17" height="17" viewBox="0 0 17 17" fill="none" xmlns="http://www.w3.org/2000/svg">
<path d="M8.23096 0.169922C6.64871 0.169922 5.10199 0.639114 3.7864 1.51816C2.4708 2.39722 1.44543 3.64664 0.839924 5.10845C0.234423 6.57026 0.0759967 8.17879 0.384678 9.73064C0.69336 11.2825 1.45529 12.708 2.57411 13.8268C3.69293 14.9456 5.11839 15.7075 6.67024 16.0162C8.22208 16.3249 9.83062 16.1665 11.2924 15.561C12.7542 14.9555 14.0037 13.9301 14.8827 12.6145C15.7618 11.2989 16.231 9.75217 16.231 8.16992C16.231 7.11934 16.024 6.07906 15.622 5.10845C15.22 4.13785 14.6307 3.25594 13.8878 2.51307C13.1449 1.7702 12.263 1.18092 11.2924 0.778885C10.3218 0.376848 9.28153 0.169922 8.23096 0.169922ZM8.23096 14.5699C6.96516 14.5699 5.72778 14.1946 4.67531 13.4913C3.62284 12.7881 2.80253 11.7885 2.31813 10.6191C1.83373 9.44965 1.70699 8.16282 1.95393 6.92134C2.20088 5.67986 2.81042 4.53949 3.70548 3.64444C4.60053 2.74938 5.7409 2.13984 6.98238 1.8929C8.22386 1.64595 9.51069 1.77269 10.6801 2.25709C11.8496 2.74149 12.8491 3.5618 13.5524 4.61427C14.2556 5.66675 14.631 6.90412 14.631 8.16992C14.631 9.8673 13.9567 11.4952 12.7564 12.6954C11.5562 13.8956 9.92834 14.5699 8.23096 14.5699Z" fill="#FFA35D"/>
<path d="M8.23096 3.36997C7.48835 3.36997 6.77616 3.66497 6.25106 4.19008C5.72596 4.71518 5.43096 5.42737 5.43096 6.16997C5.43096 6.38215 5.51524 6.58563 5.66527 6.73566C5.8153 6.88569 6.01878 6.96997 6.23096 6.96997C6.44313 6.96997 6.64661 6.88569 6.79664 6.73566C6.94667 6.58563 7.03096 6.38215 7.03096 6.16997C7.03096 5.93264 7.10133 5.70063 7.23319 5.50329C7.36505 5.30595 7.55246 5.15214 7.77174 5.06132C7.99101 4.97049 8.23229 4.94673 8.46506 4.99303C8.69784 5.03933 8.91166 5.15362 9.07948 5.32145C9.24731 5.48927 9.3616 5.70309 9.4079 5.93587C9.4542 6.16864 9.43044 6.40992 9.33961 6.62919C9.24879 6.84847 9.09498 7.03588 8.89764 7.16774C8.7003 7.2996 8.46829 7.36997 8.23096 7.36997C8.01878 7.36997 7.8153 7.45426 7.66527 7.60429C7.51524 7.75432 7.43096 7.9578 7.43096 8.16997V9.76997C7.43096 9.98215 7.51524 10.1856 7.66527 10.3357C7.8153 10.4857 8.01878 10.57 8.23096 10.57C8.44313 10.57 8.64661 10.4857 8.79664 10.3357C8.94667 10.1856 9.03096 9.98215 9.03096 9.76997V8.84197C9.67744 8.65318 10.2339 8.23706 10.5977 7.67033C10.9616 7.10359 11.1083 6.42443 11.0109 5.75803C10.9135 5.09162 10.5785 4.4829 10.0676 4.04405C9.55672 3.60519 8.90443 3.36579 8.23096 3.36997Z" fill="#FFA35D"/>
<path d="M8.23096 12.9699C8.67278 12.9699 9.03096 12.6117 9.03096 12.1699C9.03096 11.7281 8.67278 11.3699 8.23096 11.3699C7.78913 11.3699 7.43096 11.7281 7.43096 12.1699C7.43096 12.6117 7.78913 12.9699 8.23096 12.9699Z" fill="#FFA35D"/>
</svg>
