<svg width="16" height="17" viewBox="0 0 16 17" fill="none" xmlns="http://www.w3.org/2000/svg">
<path d="M8.23096 0.169922C8.37471 0.169922 8.51846 0.201344 8.64971 0.261045L14.5341 2.77165C15.2216 3.06387 15.7341 3.74573 15.7309 4.56898C15.7153 7.68603 14.4403 13.3891 9.05595 15.9814C8.53408 16.2328 7.92783 16.2328 7.40596 15.9814C2.02159 13.3891 0.746596 7.68603 0.730971 4.56898C0.727846 3.74573 1.24035 3.06387 1.92784 2.77165L7.81533 0.261045C7.94346 0.201344 8.08721 0.169922 8.23096 0.169922ZM8.23096 2.2689V14.1464C12.5434 12.0474 13.7028 7.40009 13.7309 4.61297L8.23096 2.2689Z" fill="#FFA35D"/>
</svg>
