<svg width="19" height="17" viewBox="0 0 19 17" fill="none" xmlns="http://www.w3.org/2000/svg">
<path d="M2.48096 1.31278C2.48096 0.680636 1.97822 0.169922 1.35596 0.169922C0.733691 0.169922 0.230957 0.680636 0.230957 1.31278V13.3128C0.230957 14.8914 1.48955 16.1699 3.04346 16.1699H17.106C17.7282 16.1699 18.231 15.6592 18.231 15.0271C18.231 14.3949 17.7282 13.8842 17.106 13.8842H3.04346C2.73408 13.8842 2.48096 13.6271 2.48096 13.3128V1.31278ZM16.7755 4.40564C17.2149 3.95921 17.2149 3.23421 16.7755 2.78778C16.336 2.34135 15.6224 2.34135 15.1829 2.78778L11.481 6.55206L9.46299 4.50207C9.02354 4.05564 8.30986 4.05564 7.87041 4.50207L3.93291 8.50206C3.49346 8.94849 3.49346 9.67349 3.93291 10.1199C4.37236 10.5664 5.08604 10.5664 5.52549 10.1199L8.66846 6.93064L10.6864 8.98064C11.1259 9.42707 11.8396 9.42707 12.279 8.98064L16.779 4.40921L16.7755 4.40564Z" fill="#FFA35D"/>
</svg>
