<svg width="570" height="77" viewBox="0 0 570 77" fill="none" xmlns="http://www.w3.org/2000/svg">
<g filter="url(#filter0_d_2523_2514)">
<path d="M30.6194 0.858906C37.6798 0.858906 43.85 2.29044 49.1294 5.15351C54.4723 7.95291 58.5749 11.8975 61.4372 16.9873C64.2995 22.0772 65.7306 27.8989 65.7306 34.4521C65.7306 40.9416 64.2679 46.7315 61.3421 51.8213C58.4798 56.9112 54.3768 60.9198 49.0338 63.8465C43.7544 66.7095 37.6161 68.1411 30.6194 68.1411H5.90822C4.85434 68.1411 4 67.2865 4 66.2323V2.76762C4 1.71346 4.85434 0.858906 5.90822 0.858906H30.6194ZM23.5039 20.5823C21.0126 20.5824 19.6353 23.5103 21.2044 25.4709L26.9824 32.6901C27.8637 33.7912 27.8637 35.3672 26.9824 36.4683L21.2044 43.6882C19.6353 45.6488 21.0125 48.5767 23.5039 48.5767H32.3102C33.2026 48.5767 34.0476 48.1687 34.6097 47.4664L43.4116 36.4683C44.2928 35.3672 44.2929 33.7912 43.4116 32.6901L34.6097 21.6926C34.0476 20.9903 33.2026 20.5823 32.3102 20.5823H23.5039Z" fill="#003956"/>
<path d="M95.8805 15.8423C94.8266 15.8423 93.9722 16.6969 93.9722 17.751V24.9087C93.9722 25.9629 94.8266 26.8174 95.8805 26.8174H113.531C114.585 26.8174 115.44 27.672 115.44 28.7261V39.1286C115.44 40.1828 114.585 41.0373 113.531 41.0373H95.8805C94.8266 41.0373 93.9722 41.8919 93.9722 42.946V51.2489C93.9722 52.3031 94.8266 53.1577 95.8805 53.1577H116.394C117.448 53.1577 118.302 54.0122 118.302 55.0664V66.2324C118.302 67.2865 117.448 68.1411 116.394 68.1411H77.1799C76.1261 68.1411 75.2717 67.2865 75.2717 66.2324V2.76762C75.2717 1.71346 76.1261 0.858906 77.1799 0.858906H116.394C117.448 0.858906 118.302 1.71347 118.302 2.76762V13.9336C118.302 14.9877 117.448 15.8423 116.394 15.8423H95.8805Z" fill="#003956"/>
<path d="M155.226 69C147.402 69 140.978 67.1549 135.953 63.4647C131.424 60.0817 128.781 55.4069 128.024 49.4402C127.886 48.3535 128.764 47.4315 129.859 47.4315H146.024C147.018 47.4315 147.822 48.2021 148.043 49.1714C148.382 50.6526 148.995 51.7905 149.883 52.5851C151.091 53.6667 152.65 54.2075 154.558 54.2075C156.275 54.2075 157.675 53.7939 158.756 52.9668C159.901 52.0761 160.474 50.8672 160.474 49.3402C160.474 47.3679 159.551 45.8409 157.707 44.7593C155.862 43.6777 152.872 42.4689 148.738 41.1328C144.349 39.6694 140.787 38.2697 138.052 36.9336C135.38 35.5339 133.027 33.5297 130.992 30.9212C129.02 28.249 128.034 24.7815 128.034 20.5187C128.034 16.1923 129.115 12.5021 131.278 9.44813C133.44 6.33057 136.43 3.97649 140.246 2.38589C144.063 0.795296 148.388 0 153.222 0C161.046 0 167.279 1.84509 171.923 5.53527C176.145 8.7885 178.602 13.2449 179.292 18.9045C179.424 19.9866 178.548 20.9004 177.458 20.9004H160.987C159.957 20.9004 159.149 20.0688 158.893 19.0702C158.598 17.9222 158.044 17.0054 157.23 16.3195C156.085 15.3015 154.59 14.7925 152.745 14.7925C151.346 14.7925 150.201 15.2061 149.31 16.0332C148.42 16.8603 147.975 18.0373 147.975 19.5643C147.975 20.8368 148.452 21.9502 149.406 22.9046C150.424 23.7953 151.664 24.5906 153.127 25.2905C154.59 25.9267 156.752 26.7538 159.615 27.7718C163.876 29.2351 167.375 30.6985 170.11 32.1618C172.909 33.5616 175.294 35.5657 177.266 38.1743C179.301 40.7192 180.319 43.964 180.319 47.9087C180.319 51.917 179.301 55.5118 177.266 58.6929C175.294 61.8741 172.4 64.3873 168.583 66.2324C164.831 68.0775 160.378 69 155.226 69Z" fill="#003956"/>
<path d="M248.156 0.858906C249.21 0.858906 250.065 1.71347 250.065 2.76762V66.2324C250.065 67.2865 249.21 68.1411 248.156 68.1411H233.272C232.218 68.1411 231.364 67.2865 231.364 66.2324V43.0415C231.364 41.9873 230.51 41.1328 229.456 41.1328H210.469C209.415 41.1328 208.561 41.9873 208.561 43.0415V66.2324C208.561 67.2865 207.706 68.1411 206.653 68.1411H191.769C190.715 68.1411 189.86 67.2865 189.86 66.2324V2.76762C189.86 1.71346 190.715 0.858906 191.769 0.858906H206.653C207.706 0.858906 208.561 1.71347 208.561 2.76762V24.2406C208.561 25.2948 209.415 26.1494 210.469 26.1494H229.456C230.51 26.1494 231.364 25.2948 231.364 24.2406V2.76762C231.364 1.71347 232.218 0.858906 233.272 0.858906H248.156Z" fill="#003956"/>
<path d="M336.22 0.858906C337.274 0.858906 338.128 1.71347 338.128 2.76762V66.2324C338.128 67.2865 337.274 68.1411 336.22 68.1411H321.336C320.282 68.1411 319.428 67.2865 319.428 66.2324V42.4991C319.428 40.3423 316.412 39.8408 315.714 41.8816L307.18 66.8499C306.916 67.6221 306.19 68.1411 305.374 68.1411H292.455C291.639 68.1411 290.913 67.6221 290.649 66.8497L282.02 41.5975C281.322 39.5566 278.306 40.058 278.306 42.2149V66.2324C278.306 67.2865 277.451 68.1411 276.397 68.1411H261.513C260.46 68.1411 259.605 67.2865 259.605 66.2324V2.76762C259.605 1.71346 260.46 0.858906 261.513 0.858906H280.909C281.698 0.858906 282.405 1.34394 282.689 2.07957L297.305 39.9089C297.936 41.5431 300.251 41.5342 300.87 39.8953L315.145 2.09315C315.426 1.35041 316.137 0.858906 316.93 0.858906H336.22Z" fill="#F77B1D"/>
<path d="M364.462 0.858906C365.516 0.858906 366.37 1.71347 366.37 2.76762V66.2324C366.37 67.2865 365.516 68.1411 364.462 68.1411H349.578C348.524 68.1411 347.669 67.2865 347.669 66.2324V2.76762C347.669 1.71346 348.524 0.858906 349.578 0.858906H364.462Z" fill="#F77B1D"/>
<path d="M428.387 0.858906C429.441 0.858906 430.295 1.71347 430.295 2.76762V13.8382C430.295 14.8923 429.441 15.7469 428.387 15.7469H414.266C413.212 15.7469 412.358 16.6014 412.358 17.6556V66.2324C412.358 67.2865 411.503 68.1411 410.449 68.1411H395.565C394.511 68.1411 393.657 67.2865 393.657 66.2324V17.6556C393.657 16.6014 392.803 15.7469 391.749 15.7469H377.819C376.765 15.7469 375.911 14.8923 375.911 13.8382V2.76762C375.911 1.71346 376.765 0.858906 377.819 0.858906H428.387Z" fill="#F77B1D"/>
<path d="M475.037 68.1411C474.335 68.1411 473.69 67.7555 473.357 67.1373L460.895 43.9876C460.677 43.5812 460.252 43.3278 459.791 43.3278C459.098 43.3278 458.536 43.8895 458.536 44.5825V66.2324C458.536 67.2865 457.682 68.1411 456.628 68.1411H441.744C440.69 68.1411 439.836 67.2865 439.836 66.2324V2.76762C439.836 1.71346 440.69 0.858906 441.744 0.858906H469.318C474.724 0.858906 479.304 1.81327 483.057 3.72198C486.81 5.56707 489.64 8.14383 491.549 11.4523C493.457 14.6971 494.411 18.3554 494.411 22.4274C494.411 27.0083 493.139 31.0484 490.594 34.5477C488.518 37.4229 485.618 39.6074 481.894 41.1013C480.753 41.5592 480.212 42.9159 480.827 43.981L493.137 65.277C493.873 66.5494 492.954 68.1411 491.485 68.1411H475.037ZM458.536 28.6307C458.536 29.6848 459.391 30.5394 460.445 30.5394H467.791C470.336 30.5394 472.244 29.935 473.516 28.7261C474.788 27.5173 475.424 25.7676 475.424 23.4772C475.424 21.314 474.756 19.6279 473.421 18.4191C472.148 17.1466 470.272 16.5104 467.791 16.5104H460.445C459.391 16.5104 458.536 17.3649 458.536 18.4191V28.6307Z" fill="#F77B1D"/>
<path d="M545.628 5.56895L544.5 2.16681C544.241 1.386 543.511 0.858944 542.689 0.858944H528.039C527.217 0.858944 526.487 1.38577 526.228 2.16634L505.167 65.6311C504.757 66.8666 505.676 68.1411 506.978 68.1411H518.659C519.496 68.1411 520.235 67.596 520.482 66.7965L530.83 33.3415C528.647 29.8913 527.143 23.7443 530.609 13.229L531.968 9.10146L535.132 11.811C535.422 12.0515 541.193 17.1667 540.177 28.7518C541.111 28.0997 542.087 27.4857 543.103 26.9032C541.024 23.5797 539.068 16.7805 545.628 5.56895ZM559.619 47.7248L557.227 40.5205C556.136 40.7231 554.94 40.837 553.64 40.837C550.917 40.837 547.985 40.3242 544.932 39.3113L543.939 38.9821C543.306 39.5962 542.679 40.2483 542.069 40.9446L542.104 41.0586C542.801 40.9636 543.544 40.913 544.333 40.913C547.352 40.913 550.795 41.6663 554.569 43.1414L558.354 44.6291L555.869 48.0793C555.73 48.2755 552.659 52.4221 545.942 53.4603L546.743 56.0432L550.066 66.7961C550.313 67.5958 551.052 68.1411 551.889 68.1411H563.75C565.052 68.1411 565.971 66.8666 565.561 65.6311L559.619 47.7248Z" fill="#F77B1D"/>
<path d="M553.588 46.1228C553.588 46.1228 548.328 53.422 535.179 49.2501C535.179 49.2501 538.285 40.1213 553.588 46.1228Z" fill="#059246"/>
<path d="M533.338 14.2987C533.338 14.2987 540.032 20.0343 536.212 34.3732C536.212 34.3732 527.84 30.9863 533.338 14.2987Z" fill="#059246"/>
<path d="M548.514 6.5312C548.514 6.5312 553.75 13.8431 546.894 26.7703C546.894 26.7703 539.515 21.2943 548.514 6.5312Z" fill="#059246"/>
<path d="M564.212 33.3982C564.212 33.3982 558.877 40.6278 545.773 36.285C545.773 36.285 548.978 27.2005 564.212 33.3982Z" fill="#059246"/>
<path d="M536.171 68.141C536.171 68.141 530.534 64.8871 529.205 54.758C527.881 44.629 535.178 33.7782 547.782 27.9857C553.117 25.5357 556.252 22.5034 558.098 19.8192C556.827 17.901 554.696 12.4946 561.762 3.06193C561.762 3.06193 566.064 13.7861 559.538 19.9331C558.238 23.2947 555.561 27.3083 550.104 30.518C540.038 36.4435 527.213 49.3327 536.171 68.141Z" fill="#059246"/>
<path d="M535.777 48.1107C535.341 48.7755 535.179 49.2501 535.179 49.2501C548.328 53.422 553.588 46.1228 553.588 46.1228C553.205 45.9709 552.827 45.8317 552.456 45.6988C550.511 47.4777 545.315 50.8646 535.777 48.1107Z" fill="#059246"/>
<path d="M536.212 34.3732C537.646 28.9858 537.599 24.814 536.978 21.6994C537.356 24.6305 537.216 28.3592 535.985 32.9869C535.985 32.9869 532.676 31.6448 531.585 26.498C532.316 32.797 536.212 34.3732 536.212 34.3732Z" fill="#059246"/>
<path d="M546.894 26.7703C550.766 19.4647 550.784 13.9567 550.058 10.5444C550.488 13.9883 550.052 19.0022 546.668 25.3835C546.668 25.3835 544.839 24.0287 544.113 20.8381C544.543 25.0226 546.894 26.7703 546.894 26.7703Z" fill="#059246"/>
<path d="M563.08 32.9613C561.123 34.7085 555.893 38.0321 546.377 35.158C545.942 35.8164 545.773 36.285 545.773 36.285C558.877 40.6278 564.212 33.3982 564.212 33.3982C563.829 33.2399 563.451 33.0942 563.08 32.9613Z" fill="#059246"/>
<path d="M557.872 18.4328C557.518 17.8947 557.094 17.0843 556.821 15.9891C556.926 17.1856 557.227 18.1352 557.564 18.8632C557.674 18.7176 557.773 18.5784 557.872 18.4328Z" fill="#059246"/>
<path d="M547.852 31.9357C548.351 31.6002 548.839 31.2837 549.327 30.9861C549.588 30.8279 549.849 30.6699 550.104 30.518C555.561 27.3083 558.238 23.2947 559.538 19.9331C563.643 16.0651 563.463 10.3799 562.76 6.70177C563.219 10.3166 562.935 15.1342 559.312 18.5464C558.012 21.908 555.335 25.9216 549.878 29.1313C541.245 34.2148 530.581 44.4198 533.379 59.0879C531.649 46.3886 540.026 37.1902 547.852 31.9357Z" fill="#059246"/>
<path d="M559.619 47.7248C555.445 54.6758 549.738 55.9166 546.743 56.0432L545.942 53.4603C552.659 52.4221 555.73 48.2755 555.869 48.0793L558.354 44.6291L554.569 43.1414C550.795 41.6663 547.352 40.913 544.333 40.913C543.544 40.913 542.801 40.9636 542.104 41.0586L542.069 40.9446C542.679 40.2483 543.306 39.5962 543.939 38.9821L544.932 39.3113C547.985 40.3242 550.917 40.837 553.64 40.837C554.94 40.837 556.136 40.7231 557.227 40.5205L559.619 47.7248Z" fill="#CA6618"/>
</g>
<defs>
<filter id="filter0_d_2523_2514" x="0" y="0" width="569.66" height="77" filterUnits="userSpaceOnUse" color-interpolation-filters="sRGB">
<feFlood flood-opacity="0" result="BackgroundImageFix"/>
<feColorMatrix in="SourceAlpha" type="matrix" values="0 0 0 0 0 0 0 0 0 0 0 0 0 0 0 0 0 0 127 0" result="hardAlpha"/>
<feOffset dy="4"/>
<feGaussianBlur stdDeviation="2"/>
<feComposite in2="hardAlpha" operator="out"/>
<feColorMatrix type="matrix" values="0 0 0 0 0 0 0 0 0 0 0 0 0 0 0 0 0 0 0.25 0"/>
<feBlend mode="normal" in2="BackgroundImageFix" result="effect1_dropShadow_2523_2514"/>
<feBlend mode="normal" in="SourceGraphic" in2="effect1_dropShadow_2523_2514" result="shape"/>
</filter>
</defs>
</svg>
