<svg width="40" height="41" viewBox="0 0 40 41" fill="none" xmlns="http://www.w3.org/2000/svg">
<path d="M32 0.324219C36.4183 0.324219 40 3.90594 40 8.32422V32.3242C40 36.7425 36.4183 40.3242 32 40.3242H8C3.58172 40.3242 0 36.7425 0 32.3242V8.32422C0 3.90594 3.58172 0.324219 8 0.324219H32Z" fill="#89D7FF"/>
<path d="M32 0.324219C36.4183 0.324219 40 3.90594 40 8.32422V32.3242C40 36.7425 36.4183 40.3242 32 40.3242H8C3.58172 40.3242 0 36.7425 0 32.3242V8.32422C0 3.90594 3.58172 0.324219 8 0.324219H32Z" stroke="#E5E7EB"/>
<path d="M27.875 34.3242H12.125V6.32422H27.875V34.3242Z" stroke="#E5E7EB"/>
<g clip-path="url(#clip0_1022_1811)">
<path d="M26.75 11.6992H13.2465C12.6277 11.6992 12.125 12.209 12.125 12.8348V26.3137C12.125 26.9395 12.6277 27.4492 13.2465 27.4492H26.75C27.3687 27.4492 27.875 26.9395 27.875 26.3137V12.8348C27.875 12.209 27.3687 11.6992 26.75 11.6992ZM16.8852 25.1992H14.5508V17.6828H16.8887V25.1992H16.8852ZM15.718 16.6562C14.9691 16.6562 14.3645 16.048 14.3645 15.3027C14.3645 14.5574 14.9691 13.9492 15.718 13.9492C16.4633 13.9492 17.0715 14.5574 17.0715 15.3027C17.0715 16.0516 16.4668 16.6562 15.718 16.6562ZM25.6355 25.1992H23.3012V21.543C23.3012 20.6711 23.2836 19.5496 22.0883 19.5496C20.8719 19.5496 20.6855 20.4988 20.6855 21.4797V25.1992H18.3512V17.6828H20.5906V18.7094H20.6223C20.9352 18.1187 21.698 17.4965 22.8336 17.4965C25.1961 17.4965 25.6355 19.0539 25.6355 21.0789V25.1992Z" fill="#003956"/>
</g>
<defs>
<clipPath id="clip0_1022_1811">
<path d="M12.125 10.5742H27.875V28.5742H12.125V10.5742Z" fill="white"/>
</clipPath>
</defs>
</svg>
