<svg width="40" height="41" viewBox="0 0 40 41" fill="none" xmlns="http://www.w3.org/2000/svg">
<path d="M32 0.324219C36.4183 0.324219 40 3.90594 40 8.32422V32.3242C40 36.7425 36.4183 40.3242 32 40.3242H8C3.58172 40.3242 0 36.7425 0 32.3242V8.32422C0 3.90594 3.58172 0.324219 8 0.324219H32Z" fill="#89D7FF"/>
<path d="M32 0.324219C36.4183 0.324219 40 3.90594 40 8.32422V32.3242C40 36.7425 36.4183 40.3242 32 40.3242H8C3.58172 40.3242 0 36.7425 0 32.3242V8.32422C0 3.90594 3.58172 0.324219 8 0.324219H32Z" stroke="#E5E7EB"/>
<path d="M27.875 34.3242H12.125V6.32422H27.875V34.3242Z" stroke="#E5E7EB"/>
<g clip-path="url(#clip0_1022_1826)">
<path d="M20.0035 15.5315C17.7675 15.5315 15.964 17.3351 15.964 19.571C15.964 21.8069 17.7675 23.6104 20.0035 23.6104C22.2394 23.6104 24.0429 21.8069 24.0429 19.571C24.0429 17.3351 22.2394 15.5315 20.0035 15.5315ZM20.0035 22.1972C18.5585 22.1972 17.3773 21.0194 17.3773 19.571C17.3773 18.1226 18.555 16.9448 20.0035 16.9448C21.4519 16.9448 22.6296 18.1226 22.6296 19.571C22.6296 21.0194 21.4484 22.1972 20.0035 22.1972ZM25.1503 15.3663C25.1503 15.8901 24.7285 16.3085 24.2082 16.3085C23.6843 16.3085 23.266 15.8866 23.266 15.3663C23.266 14.846 23.6878 14.4241 24.2082 14.4241C24.7285 14.4241 25.1503 14.846 25.1503 15.3663ZM27.8257 16.3226C27.766 15.0604 27.4777 13.9425 26.5531 13.0214C25.632 12.1003 24.514 11.812 23.2519 11.7487C21.9511 11.6749 18.0523 11.6749 16.7515 11.7487C15.4929 11.8085 14.375 12.0968 13.4503 13.0179C12.5257 13.939 12.241 15.0569 12.1777 16.319C12.1039 17.6198 12.1039 21.5187 12.1777 22.8194C12.2375 24.0815 12.5257 25.1995 13.4503 26.1206C14.375 27.0417 15.4894 27.33 16.7515 27.3933C18.0523 27.4671 21.9511 27.4671 23.2519 27.3933C24.514 27.3335 25.632 27.0452 26.5531 26.1206C27.4742 25.1995 27.7625 24.0815 27.8257 22.8194C27.8996 21.5187 27.8996 17.6233 27.8257 16.3226ZM26.1453 24.2151C25.871 24.9042 25.3402 25.4351 24.6476 25.7128C23.6105 26.1241 21.1496 26.0292 20.0035 26.0292C18.8574 26.0292 16.3929 26.1206 15.3593 25.7128C14.6703 25.4386 14.1394 24.9077 13.8617 24.2151C13.4503 23.178 13.5453 20.7171 13.5453 19.571C13.5453 18.4249 13.4539 15.9604 13.8617 14.9269C14.1359 14.2378 14.6667 13.7069 15.3593 13.4292C16.3964 13.0179 18.8574 13.1128 20.0035 13.1128C21.1496 13.1128 23.614 13.0214 24.6476 13.4292C25.3367 13.7034 25.8675 14.2343 26.1453 14.9269C26.5566 15.964 26.4617 18.4249 26.4617 19.571C26.4617 20.7171 26.5566 23.1815 26.1453 24.2151Z" fill="#003956"/>
</g>
<defs>
<clipPath id="clip0_1022_1826">
<path d="M12.125 10.5742H27.875V28.5742H12.125V10.5742Z" fill="white"/>
</clipPath>
</defs>
</svg>
