<svg width="40" height="41" viewBox="0 0 40 41" fill="none" xmlns="http://www.w3.org/2000/svg">
<path d="M32 0.324219C36.4183 0.324219 40 3.90594 40 8.32422V32.3242C40 36.7425 36.4183 40.3242 32 40.3242H8C3.58172 40.3242 0 36.7425 0 32.3242V8.32422C0 3.90594 3.58172 0.324219 8 0.324219H32Z" fill="#89D7FF"/>
<path d="M32 0.324219C36.4183 0.324219 40 3.90594 40 8.32422V32.3242C40 36.7425 36.4183 40.3242 32 40.3242H8C3.58172 40.3242 0 36.7425 0 32.3242V8.32422C0 3.90594 3.58172 0.324219 8 0.324219H32Z" stroke="#E5E7EB"/>
<path d="M29 34.3242H11V6.32422H29V34.3242Z" stroke="#E5E7EB"/>
<path d="M29 28.5742H11V10.5742H29V28.5742Z" stroke="#E5E7EB"/>
<path d="M27.1497 15.9071C27.1612 16.0669 27.1612 16.2269 27.1612 16.3868C27.1612 21.2636 23.4493 26.8829 16.665 26.8829C14.5749 26.8829 12.6333 26.2776 11 25.2269C11.297 25.2611 11.5825 25.2725 11.8909 25.2725C13.6154 25.2725 15.203 24.6901 16.4708 23.6964C14.849 23.6621 13.4898 22.6 13.0216 21.138C13.25 21.1723 13.4784 21.1951 13.7183 21.1951C14.0495 21.1951 14.3807 21.1494 14.6891 21.0695C12.9987 20.7268 11.7309 19.2421 11.7309 17.4489V17.4033C12.222 17.6774 12.7931 17.8487 13.3984 17.8715C12.4048 17.2091 11.7538 16.0784 11.7538 14.7992C11.7538 14.1139 11.9365 13.4857 12.2563 12.9375C14.0723 15.1761 16.802 16.638 19.8629 16.7979C19.8058 16.5238 19.7715 16.2383 19.7715 15.9528C19.7715 13.9197 21.4162 12.2637 23.4606 12.2637C24.5228 12.2637 25.4822 12.7091 26.156 13.4286C26.9898 13.2688 27.7893 12.9604 28.4974 12.5378C28.2233 13.3944 27.6408 14.1139 26.8756 14.5708C27.618 14.4909 28.3375 14.2852 28.9999 13.9997C28.4975 14.7307 27.8693 15.3816 27.1497 15.9071Z" fill="#003956"/>
</svg>
