<svg width="40" height="41" viewBox="0 0 40 41" fill="none" xmlns="http://www.w3.org/2000/svg">
<path d="M32 0.324219C36.4183 0.324219 40 3.90594 40 8.32422V32.3242C40 36.7425 36.4183 40.3242 32 40.3242H8C3.58172 40.3242 0 36.7425 0 32.3242V8.32422C0 3.90594 3.58172 0.324219 8 0.324219H32Z" fill="#89D7FF"/>
<path d="M32 0.324219C36.4183 0.324219 40 3.90594 40 8.32422V32.3242C40 36.7425 36.4183 40.3242 32 40.3242H8C3.58172 40.3242 0 36.7425 0 32.3242V8.32422C0 3.90594 3.58172 0.324219 8 0.324219H32Z" stroke="#E5E7EB"/>
<path d="M29 34.3242H11V6.32422H29V34.3242Z" stroke="#E5E7EB"/>
<g clip-path="url(#clip0_1022_1821)">
<path d="M28.7188 19.5742C28.7188 14.7578 24.8164 10.8555 20 10.8555C15.1836 10.8555 11.2812 14.7578 11.2812 19.5742C11.2812 23.9259 14.4696 27.5329 18.6377 28.1875V22.0946H16.4229V19.5742H18.6377V17.6533C18.6377 15.4683 19.9385 14.2614 21.9308 14.2614C22.8849 14.2614 23.8827 14.4316 23.8827 14.4316V16.5761H22.783C21.7002 16.5761 21.3623 17.2483 21.3623 17.9377V19.5742H23.7804L23.3936 22.0946H21.3623V28.1875C25.5304 27.5329 28.7188 23.9259 28.7188 19.5742Z" fill="#003956"/>
</g>
<defs>
<clipPath id="clip0_1022_1821">
<path d="M11 10.5742H29V28.5742H11V10.5742Z" fill="white"/>
</clipPath>
</defs>
</svg>
